<?xml version="1.0" encoding="UTF-8"?>
<svg width="0" height="0" style="display:none" xmlns="http://www.w3.org/2000/svg">
    <!-- ========================================== -->
    <!-- EduHemis - Maxsus ikonkalar to'plami       -->
    <!-- ========================================== -->
    
    <!-- 1. Dashboard ikonkasi -->
    <symbol id="icon-dashboard" viewBox="0 0 24 24">
        <path d="M3 13h8V3H3v10zm0 8h8v-6H3v6zm10 0h8V11h-8v10zm0-18v6h8V3h-8z" fill="currentColor"/>
    </symbol>

    <!-- 2. Talaba ikonkasi -->
    <symbol id="icon-student" viewBox="0 0 24 24">
        <path d="M12 3L1 9l11 6 11-6-11-6zm0 11.5L3.5 9.5 12 5l8.5 4.5L12 14.5zM12 21l-7-4v-5l7 4 7-4v5l-7 4z" fill="currentColor"/>
    </symbol>

    <!-- 3. O'qituvchi ikonkasi -->
    <symbol id="icon-teacher" viewBox="0 0 24 24">
        <path d="M20 17c0 .9-.4 1.7-1 2.2V20c0 .6-.4 1-1 1h-2c-.6 0-1-.4-1-1v-.8c-.6-.5-1-1.3-1-2.2v-2c0-1.1.9-2 2-2h2c1.1 0 2 .9 2 2v2zM4 17c0 .9.4 1.7 1 2.2V20c0 .6.4 1 1 1h2c.6 0 1-.4 1-1v-.8c.6-.5 1-1.3 1-2.2v-2c0-1.1-.9-2-2-2H6c-1.1 0-2 .9-2 2v2z" fill="currentColor"/>
        <circle cx="12" cy="8" r="4" fill="currentColor"/>
    </symbol>

    <!-- 4. Admin ikonkasi -->
    <symbol id="icon-admin" viewBox="0 0 24 24">
        <path d="M12 1L3 5v6c0 5.5 3.8 10.7 9 12 5.2-1.3 9-6.5 9-12V5l-9-4zm0 10.9c-2 0-4-1.5-4-3.9 0-2.4 2-3.9 4-3.9s4 1.5 4 3.9c0 2.4-2 3.9-4 3.9z" fill="currentColor"/>
    </symbol>

    <!-- 5. Guruh ikonkasi -->
    <symbol id="icon-group" viewBox="0 0 24 24">
        <path d="M16 11c1.7 0 3-1.3 3-3s-1.3-3-3-3-3 1.3-3 3 1.3 3 3 3zm-8 0c1.7 0 3-1.3 3-3S9.7 5 8 5 5 6.3 5 8s1.3 3 3 3zm0 2c-2.3 0-7 1.2-7 3.5V19h14v-2.5c0-2.3-4.7-3.5-7-3.5zm8 0c-.3 0-.5 0-.8.1 1.5.8 2.8 1.9 2.8 3.4V19h7v-2.5c0-2.3-4.7-3.5-7-3.5z" fill="currentColor"/>
    </symbol>

    <!-- 6. Dars ikonkasi -->
    <symbol id="icon-lesson" viewBox="0 0 24 24">
        <path d="M19 3h-4.2C14.4 1.8 13.3 1 12 1s-2.4.8-2.8 2H5c-1.1 0-2 .9-2 2v14c0 1.1.9 2 2 2h14c1.1 0 2-.9 2-2V5c0-1.1-.9-2-2-2zm-7 0c.6 0 1 .4 1 1s-.4 1-1 1-1-.4-1-1 .4-1 1-1zm2 7H7v-2h7v2zm4 4H7v-2h11v2zm0 4H7v-2h11v2z" fill="currentColor"/>
    </symbol>

    <!-- 7. Vazifa ikonkasi -->
    <symbol id="icon-task" viewBox="0 0 24 24">
        <path d="M14 2H6c-1.1 0-2 .9-2 2v16c0 1.1.9 2 2 2h12c1.1 0 2-.9 2-2V8l-6-6zm2 18H6V4h7v5h5v11zM8 15h8v2H8v-2zm0-4h8v2H8v-2z" fill="currentColor"/>
    </symbol>

    <!-- 8. Baho ikonkasi -->
    <symbol id="icon-grade" viewBox="0 0 24 24">
        <path d="M12 17.3l4.3 2.6-1.1-4.9 3.8-3.3-5-.4-2-4.6-2 4.6-5 .4 3.8 3.3-1.1 4.9 4.3-2.6z" fill="currentColor"/>
    </symbol>

    <!-- 9. Kalendar ikonkasi -->
    <symbol id="icon-calendar" viewBox="0 0 24 24">
        <path d="M19 4h-1V2h-2v2H8V2H6v2H5c-1.1 0-2 .9-2 2v14c0 1.1.9 2 2 2h14c1.1 0 2-.9 2-2V6c0-1.1-.9-2-2-2zm0 16H5V10h14v10zM7 12h5v5H7v-5z" fill="currentColor"/>
    </symbol>

    <!-- 10. Soat ikonkasi -->
    <symbol id="icon-clock" viewBox="0 0 24 24">
        <path d="M11.99 2C6.47 2 2 6.48 2 12s4.47 10 9.99 10C17.52 22 22 17.52 22 12S17.52 2 11.99 2zM12 20c-4.42 0-8-3.58-8-8s3.58-8 8-8 8 3.58 8 8-3.58 8-8 8zm-.5-13v6l5.2 3.1.8-1.2-4.5-2.7V7h-1.5z" fill="currentColor"/>
    </symbol>

    <!-- 11. Xona ikonkasi -->
    <symbol id="icon-room" viewBox="0 0 24 24">
        <path d="M19 3H5c-1.1 0-2 .9-2 2v14c0 1.1.9 2 2 2h14c1.1 0 2-.9 2-2V5c0-1.1-.9-2-2-2zm0 16H5V5h14v14zM7 9h10v2H7V9zm0 4h6v2H7v-2z" fill="currentColor"/>
    </symbol>

    <!-- 12. Bildirishnoma ikonkasi -->
    <symbol id="icon-notification" viewBox="0 0 24 24">
        <path d="M12 22c1.1 0 2-.9 2-2h-4c0 1.1.9 2 2 2zm6-6v-5c0-3.1-1.6-5.6-4.5-6.3V4c0-.8-.7-1.5-1.5-1.5s-1.5.7-1.5 1.5v.7C9.6 5.4 8 7.9 8 11v5l-2 2v1h12v-1l-2-2z" fill="currentColor"/>
    </symbol>

    <!-- 13. Sozlamalar ikonkasi -->
    <symbol id="icon-settings" viewBox="0 0 24 24">
        <path d="M19.1 12.9c.1-.3.1-.6.1-.9s0-.6-.1-.9l2.1-1.6c.2-.2.3-.4.1-.7l-2-3.5c-.1-.2-.4-.3-.7-.2l-2.4 1c-.5-.4-1.1-.7-1.7-.9l-.4-2.6c0-.2-.2-.5-.5-.5h-4c-.2 0-.5.2-.5.5l-.4 2.6c-.6.2-1.2.5-1.7.9l-2.4-1c-.2-.1-.5 0-.7.2l-2 3.5c-.1.2 0 .5.1.7l2.1 1.6c-.1.3-.1.6-.1.9s0 .6.1.9l-2.1 1.6c-.2.2-.3.4-.1.7l2 3.5c.1.2.4.3.7.2l2.4-1c.5.4 1.1.7 1.7.9l.4 2.6c0 .2.2.5.5.5h4c.2 0 .5-.2.5-.5l.4-2.6c.6-.2 1.2-.5 1.7-.9l2.4 1c.2.1.5 0 .7-.2l2-3.5c.1-.2 0-.5-.1-.7l-2.1-1.6zM12 15.5c-1.9 0-3.5-1.6-3.5-3.5s1.6-3.5 3.5-3.5 3.5 1.6 3.5 3.5-1.6 3.5-3.5 3.5z" fill="currentColor"/>
    </symbol>

    <!-- 14. Profil ikonkasi -->
    <symbol id="icon-profile" viewBox="0 0 24 24">
        <path d="M12 12c2.2 0 4-1.8 4-4s-1.8-4-4-4-4 1.8-4 4 1.8 4 4 4zm0 2c-2.7 0-8 1.3-8 4v2h16v-2c0-2.7-5.3-4-8-4z" fill="currentColor"/>
    </symbol>

    <!-- 15. Chiqish ikonkasi -->
    <symbol id="icon-logout" viewBox="0 0 24 24">
        <path d="M17 7l-1.4 1.4 2.6 2.6H9v2h9.2l-2.6 2.6L17 17l5-5-5-5zM5 19h7v2H5c-1.1 0-2-.9-2-2V5c0-1.1.9-2 2-2h7v2H5v14z" fill="currentColor"/>
    </symbol>
</svg>